<svg xmlns="http://www.w3.org/2000/svg" viewBox="0 0 64 64" width="64" height="64">
  <defs>
    <style>
      .icon-stroke { fill: none; stroke-width: 2; stroke-linecap: round; stroke-linejoin: round; }
      .icon-fill { stroke: none; }
      .icon-light { opacity: 0.3; }
    </style>
  </defs>
  <defs><linearGradient id="jurorForschGrad" x1="0%" y1="0%" x2="0%" y2="100%"><stop offset="0%" style="stop-color:#ED1C24;stop-opacity:1" /><stop offset="100%" style="stop-color:#C8102E;stop-opacity:1" /></linearGradient></defs><g class="icon-fill" fill="url(#jurorForschGrad)"><path d="M 18 14 L 46 14 L 46 50 L 18 50 Z" rx="2"/></g><g class="icon-stroke" stroke="#ffffff" stroke-width="2"><path d="M 22 18 L 22 46 M 42 18 L 42 46"/></g><g class="icon-fill" fill="#FBBF24"><path d="M 32 22 C 28 22 26 24 26 28 C 26 30 28 32 30 32 L 34 32 C 36 32 38 30 38 28 C 38 24 36 22 32 22 Z"/></g><g class="icon-fill" fill="#F59E0B"><rect x="31" y="32" width="2" height="6" rx="1"/></g><g class="icon-stroke" stroke="#92400E" stroke-width="1.5"><path d="M 30 38 L 34 38"/></g>
</svg>